/* XPM */
static char * creature_xpm[] = {
"9 20 4 1",
" 	c None",
".	c #461717",
"+	c #000000",
"@	c #982121",
" ..   .. ",
" .     . ",
" ... ... ",
" ++.+.++ ",
"+@@.+.@@+",
"+@@@@@@@+",
"+@@@+@@@+",
"+@@@@@@@+",
"+@@@@@@@+",
" +@@@@@+ ",
" +@@@@@+ ",
"  +@@@+  ",
"   +++   ",
"    +    ",
"     +   ",
"    +    ",
"   +     ",
"    +    ",
"     +   ",
"    +    "};
